<svg width="16" height="16" viewBox="0 0 16 16" fill="none" xmlns="http://www.w3.org/2000/svg">
<g clip-path="url(#clip0_3409_5020)">
<path d="M1.72829 10.0088C1.72829 10.6195 1.8625 11.0889 2.03773 11.3726C2.26746 11.7441 2.61031 11.9018 2.9596 11.9018C3.41028 11.9018 3.82228 11.7898 4.61697 10.691C5.25343 9.81013 6.00359 8.57413 6.50819 7.79877L7.36266 6.48542C7.95634 5.57351 8.6432 4.55963 9.43145 3.87277C10.0744 3.31191 10.7682 3.00012 11.4668 3.00012C12.639 3.00012 13.756 3.67936 14.6105 4.95346C15.5458 6.34886 16 8.10646 16 9.92031C16 10.9987 15.7873 11.791 15.4257 12.4169C15.0764 13.0223 14.3954 13.6271 13.2496 13.6271V11.9012C14.2307 11.9012 14.4751 10.9998 14.4751 9.96837C14.4751 8.49853 14.1322 6.86694 13.3774 5.70127C12.8417 4.87434 12.1472 4.36916 11.383 4.36916C10.5567 4.36916 9.89209 4.99214 9.14487 6.10331C8.74752 6.69347 8.33962 7.41315 7.88191 8.22484L7.3779 9.118C6.36519 10.9137 6.10849 11.3222 5.60273 11.9973C4.71543 13.1788 3.95766 13.6271 2.96018 13.6271C1.77693 13.6271 1.02853 13.1149 0.564961 12.3425C0.185781 11.7137 0 10.8879 0 9.94668L1.72829 10.0088Z" fill="#0A0A0A"/>
<path d="M1.36328 5.07597C2.15563 3.85462 3.29903 3.00073 4.61063 3.00073C5.37017 3.00073 6.12501 3.22578 6.91326 3.86927C7.77594 4.57313 8.69488 5.73177 9.8418 7.64232L10.2532 8.32801C11.246 9.98187 11.8104 10.8322 12.1409 11.2337C12.5658 11.7488 12.8635 11.9024 13.2503 11.9024C14.2314 11.9024 14.4758 11.001 14.4758 9.96956L16.0001 9.92151C16.0001 10.9999 15.7874 11.7922 15.4258 12.4181C15.0765 13.0235 14.3955 13.6283 13.2497 13.6283C12.5377 13.6283 11.9065 13.4736 11.2091 12.8155C10.6728 12.3103 10.0457 11.413 9.56342 10.606L8.12875 8.20904C7.40907 7.00586 6.74858 6.10919 6.36588 5.70305C5.95447 5.26644 5.42643 4.73899 4.5825 4.73899C3.89974 4.73899 3.32013 5.21779 2.83488 5.95095L1.36328 5.07597Z" fill="#0A0A0A"/>
<path d="M4.58181 4.73779C3.89905 4.73779 3.31944 5.2166 2.83418 5.94976C2.14791 6.98532 1.72829 8.52725 1.72829 10.0088C1.72829 10.6195 1.8625 11.0889 2.03773 11.3726L0.564375 12.3431C0.185781 11.7136 0 10.8879 0 9.94668C0 8.23597 0.469433 6.4526 1.36259 5.07536C2.15494 3.85401 3.29834 3.00012 4.60994 3.00012L4.58181 4.73779Z" fill="#0A0A0A"/>
</g>
<defs>
<clipPath id="clip0_3409_5020">
<rect width="16" height="16" fill="white"/>
</clipPath>
</defs>
</svg>
