<svg width="213" height="71" viewBox="0 0 213 71" fill="none" xmlns="http://www.w3.org/2000/svg">
<path d="M0 0.719716H14.6616L38.5099 41.9242V69.3176L13.7535 26.5899V69.3176H0V0.719716Z" fill="#92D60C"/>
<path d="M48.1374 24.043H61.8909V69.3176H48.1374V24.043Z" fill="#92D60C"/>
<path d="M48.1374 0.719716H61.8909V14.4393H48.1374V0.719716Z" fill="#92D60C"/>
<path d="M83.7035 29.9582V0.52629H89.2939L101.731 20.323L102.298 21.9423L102.217 20.323V0.52629H107.321V29.9582H102.217L89.2129 9.35181L88.5648 7.89438L88.6458 9.27084V29.9582H83.7035Z" fill="white"/>
<path d="M114.788 29.9582V0.52629H132.451V4.69614H120.581V25.7883H133.099V29.9582H114.788ZM122.12 16.558C122.296 15.9642 122.546 15.3502 122.87 14.7159C123.207 14.0817 123.646 13.5486 124.186 13.1168C124.727 12.685 125.388 12.4691 126.171 12.4691H131.073V16.558H122.12Z" fill="white"/>
<path d="M154.484 29.9582L136.862 0.52629H143.262L148.245 10.202L148.65 11.457L148.974 10.202L153.957 0.52629H160.317L151.526 15.0601L160.763 29.9582H154.484ZM136.416 29.9582L144.437 16.8009C144.775 17.2597 145.146 17.9074 145.551 18.7441C145.956 19.5673 146.226 20.4579 146.361 21.416C146.51 22.3607 146.355 23.2513 145.896 24.088L142.614 29.9582H136.416Z" fill="white"/>
<path d="M177.175 30.5249C174.758 30.5249 172.665 30.0729 170.896 29.1687C169.14 28.2511 167.783 26.9151 166.825 25.1608C165.866 23.4065 165.386 21.2541 165.386 18.7036V0.52629H171.098V19.3109C171.098 21.5105 171.672 23.2378 172.82 24.4928C173.981 25.7343 175.433 26.3551 177.175 26.3551C178.903 26.3551 180.348 25.7343 181.51 24.4928C182.671 23.2378 183.251 21.5105 183.251 19.3109V0.52629H188.923V18.7036C188.923 21.0922 188.444 23.1771 187.485 24.9584C186.54 26.7262 185.189 28.0959 183.434 29.0675C181.678 30.0391 179.592 30.5249 177.175 30.5249Z" fill="white"/>
<path d="M202.638 30.4845C201.49 30.4845 200.147 30.3225 198.607 29.9987C197.068 29.6883 195.373 29.108 193.523 28.2578L195.063 24.4928C196.521 25.1811 197.892 25.6601 199.175 25.93C200.457 26.1864 201.612 26.3146 202.638 26.3146C204.083 26.3146 205.271 25.9368 206.203 25.1811C207.148 24.4254 207.621 23.5212 207.621 22.4686C207.621 21.4835 207.29 20.6401 206.629 19.9384C205.967 19.2232 205.116 18.5754 204.076 17.9951C203.037 17.4014 201.929 16.8009 200.755 16.1936C199.58 15.5863 198.472 14.9049 197.433 14.1492C196.393 13.3935 195.542 12.4961 194.881 11.457C194.219 10.4179 193.888 9.16288 193.888 7.69196C193.888 5.92416 194.293 4.47348 195.103 3.33993C195.927 2.20638 197.014 1.36971 198.364 0.829922C199.715 0.276641 201.193 0 202.8 0C204.043 0 205.251 0.0877146 206.426 0.263144C207.601 0.425081 209.039 0.78269 210.74 1.33597L209.241 5.02002C208.053 4.66916 206.966 4.4195 205.98 4.27106C204.995 4.12262 204.056 4.0484 203.165 4.0484C201.95 4.0484 200.977 4.34528 200.248 4.93905C199.519 5.53281 199.154 6.28852 199.154 7.20615C199.154 8.12379 199.485 8.92673 200.147 9.61495C200.822 10.2897 201.68 10.9172 202.719 11.4975C203.773 12.0777 204.887 12.685 206.061 13.3192C207.236 13.9535 208.343 14.6687 209.383 15.4649C210.437 16.2611 211.294 17.2192 211.956 18.3393C212.631 19.4458 212.968 20.7818 212.968 22.3472C212.968 24.088 212.536 25.5657 211.672 26.7802C210.808 27.9812 209.599 28.8988 208.046 29.5331C206.494 30.1673 204.691 30.4845 202.638 30.4845Z" fill="white"/>
<path d="M83.2579 70.4422V41.0103H88.8888V70.4422H83.2579Z" fill="white"/>
<path d="M110.427 70.928C107.929 70.928 105.687 70.5366 103.702 69.754C101.717 68.9713 100.029 67.8917 98.6382 66.5152C97.2609 65.1253 96.2076 63.5127 95.4784 61.6774C94.7492 59.8421 94.3846 57.8651 94.3846 55.7465C94.3846 53.6143 94.756 51.6306 95.4987 49.7953C96.2549 47.9466 97.3419 46.3272 98.7598 44.9372C100.178 43.5338 101.879 42.4407 103.864 41.658C105.849 40.8754 108.077 40.484 110.548 40.484C111.683 40.484 113.006 40.619 114.518 40.8889C116.031 41.1587 117.557 41.6176 119.096 42.2653L117.597 46.1518C116.085 45.558 114.761 45.1599 113.627 44.9575C112.506 44.7551 111.48 44.6539 110.548 44.6539C108.941 44.6539 107.517 44.9575 106.274 45.5648C105.032 46.1585 103.986 46.9749 103.135 48.014C102.284 49.0396 101.636 50.2204 101.19 51.5564C100.758 52.8789 100.542 54.2756 100.542 55.7465C100.542 57.1364 100.752 58.4926 101.17 59.8151C101.602 61.1241 102.237 62.3049 103.074 63.3575C103.911 64.3966 104.944 65.2265 106.173 65.8472C107.402 66.4545 108.82 66.7581 110.427 66.7581C111.021 66.7581 111.602 66.7379 112.169 66.6974C112.749 66.6434 113.465 66.5152 114.316 66.3128V56.7991H119.501V68.9443C118.515 69.3896 117.462 69.7607 116.341 70.0576C115.234 70.341 114.16 70.5569 113.121 70.7053C112.081 70.8538 111.183 70.928 110.427 70.928Z" fill="white"/>
<path d="M126.211 70.4422V41.0103H131.801L144.238 60.807L144.805 62.4263L144.724 60.807V41.0103H149.829V70.4422H144.724L131.72 49.8358L131.072 48.3784L131.153 49.7548V70.4422H126.211Z" fill="white"/>
<path d="M157.701 70.4422V41.0103H163.331V70.4422H157.701Z" fill="white"/>
<path d="M175.025 70.4422V45.1802H167.328V41.0103H188.475V45.1802H180.778V70.4422H175.025Z" fill="white"/>
<path d="M192.533 70.4422V41.0103H210.196V45.1802H198.326V66.2723H210.844V70.4422H192.533ZM199.866 57.042C200.041 56.4482 200.291 55.8342 200.615 55.1999C200.953 54.5657 201.391 54.0327 201.932 53.6008C202.472 53.169 203.133 52.9531 203.917 52.9531H208.818V57.042H199.866Z" fill="white"/>
</svg>
