<svg width="16" height="16" viewBox="0 0 16 16" fill="none" xmlns="http://www.w3.org/2000/svg">
<path d="M5.33301 6L7.33301 8L5.33301 10" stroke="#0A0A0A" stroke-linecap="round" stroke-linejoin="round"/>
<path d="M8.66699 10H10.667" stroke="#0A0A0A" stroke-linecap="round" stroke-linejoin="round"/>
<path d="M2 4.00008C2 3.64646 2.14048 3.30732 2.39052 3.05727C2.64057 2.80722 2.97971 2.66675 3.33333 2.66675H12.6667C13.0203 2.66675 13.3594 2.80722 13.6095 3.05727C13.8595 3.30732 14 3.64646 14 4.00008V12.0001C14 12.3537 13.8595 12.6928 13.6095 12.9429C13.3594 13.1929 13.0203 13.3334 12.6667 13.3334H3.33333C2.97971 13.3334 2.64057 13.1929 2.39052 12.9429C2.14048 12.6928 2 12.3537 2 12.0001V4.00008Z" stroke="#0A0A0A" stroke-linecap="round" stroke-linejoin="round"/>
</svg>
